<?xml version="1.0" encoding="UTF-8" standalone="no"?>
<svg width="229px" height="228px" viewBox="0 0 229 228" version="1.1" xmlns="http://www.w3.org/2000/svg" xmlns:xlink="http://www.w3.org/1999/xlink">
    <!-- Generator: Sketch 3.6.1 (26313) - http://www.bohemiancoding.com/sketch -->
    <title>ic_error</title>
    <desc>Created with Sketch.</desc>
    <defs></defs>
    <g id="SCREENS" stroke="none" stroke-width="1" fill="none" fill-rule="evenodd">
        <g id="4.2-OTP-Response-Failure" transform="translate(-261.000000, -547.000000)" fill="#EF5350">
            <g id="Dialog" transform="translate(50.000000, 273.000000)">
                <path d="M405.890625,307.609375 C428.13032,329.84907 439.25,356.645677 439.25,388 C439.25,419.354323 428.13032,446.15093 405.890625,468.390625 C383.65093,490.63032 356.854323,501.75 325.5,501.75 C294.145677,501.75 267.34907,490.63032 245.109375,468.390625 C222.86968,446.15093 211.75,419.354323 211.75,388 C211.75,356.645677 222.86968,329.84907 245.109375,307.609375 C267.34907,285.36968 294.145677,274.25 325.5,274.25 C356.854323,274.25 383.65093,285.36968 405.890625,307.609375 L405.890625,307.609375 Z M399.328125,461.828125 C419.380309,441.775941 429.40625,417.166812 429.40625,388 C429.40625,358.833188 419.380309,334.224059 399.328125,314.171875 C379.275941,294.119691 354.666812,284.09375 325.5,284.09375 C296.333188,284.09375 271.724059,294.119691 251.671875,314.171875 C231.619691,334.224059 221.59375,358.833188 221.59375,388 C221.59375,417.166812 231.619691,441.775941 251.671875,461.828125 C271.724059,481.880309 296.333188,491.90625 325.5,491.90625 C354.666812,491.90625 379.275941,481.880309 399.328125,461.828125 L399.328125,461.828125 Z M371.4375,335.5 L378,342.0625 L332.0625,388 L378,433.9375 L371.4375,440.5 L325.5,394.5625 L279.5625,440.5 L273,433.9375 L318.9375,388 L273,342.0625 L279.5625,335.5 L325.5,381.4375 L371.4375,335.5 Z" id="ic_error"></path>
            </g>
        </g>
    </g>
</svg>