<?xml version="1.0" encoding="UTF-8" standalone="no"?>
<svg width="46px" height="32px" viewBox="0 0 46 32" version="1.1" xmlns="http://www.w3.org/2000/svg" xmlns:xlink="http://www.w3.org/1999/xlink">
    <!-- Generator: Sketch 3.6.1 (26313) - http://www.bohemiancoding.com/sketch -->
    <title>Combined Shape</title>
    <desc>Created with Sketch.</desc>
    <defs></defs>
    <g id="SCREENS" stroke="none" stroke-width="1" fill="none" fill-rule="evenodd">
        <g id="2a-Landing" transform="translate(-33.000000, -78.000000)" fill="#9E9E9E">
            <g id="Top-Bar">
                <g id="icons" transform="translate(32.000000, 70.000000)">
                    <g id="ic_menu">
                        <g id="icon" transform="translate(1.000000, 8.000000)">
                            <path d="M1.21052632,2.42105263 L44.7894737,2.42105263 C45.4580289,2.42105263 46,1.87908154 46,1.21052632 C46,0.541971092 45.4580289,0 44.7894737,0 L1.21052632,0 C0.541971092,0 0,0.541971092 0,1.21052632 C0,1.87908154 0.541971092,2.42105263 1.21052632,2.42105263 Z M1.21052632,16.9473684 L44.7894737,16.9473684 C45.4580289,16.9473684 46,16.4053973 46,15.7368421 C46,15.0682869 45.4580289,14.5263158 44.7894737,14.5263158 L1.21052632,14.5263158 C0.541971092,14.5263158 0,15.0682869 0,15.7368421 C0,16.4053973 0.541971092,16.9473684 1.21052632,16.9473684 Z M1.21052632,31.4736842 L44.7894737,31.4736842 C45.4580289,31.4736842 46,30.9317131 46,30.2631579 C46,29.5946027 45.4580289,29.0526316 44.7894737,29.0526316 L1.21052632,29.0526316 C0.541971092,29.0526316 0,29.5946027 0,30.2631579 C0,30.9317131 0.541971092,31.4736842 1.21052632,31.4736842 Z" id="Combined-Shape"></path>
                        </g>
                    </g>
                </g>
            </g>
        </g>
    </g>
</svg>