<?xml version="1.0" encoding="UTF-8" standalone="no"?>
<svg width="50px" height="35px" viewBox="0 0 50 35" version="1.1" xmlns="http://www.w3.org/2000/svg" xmlns:xlink="http://www.w3.org/1999/xlink">
    <!-- Generator: Sketch 3.6.1 (26313) - http://www.bohemiancoding.com/sketch -->
    <title>ic_mail</title>
    <desc>Created with Sketch.</desc>
    <defs></defs>
    <g id="SCREENS" stroke="none" stroke-width="1" fill="none" fill-rule="evenodd">
        <g id="1-Sign-up" transform="translate(-87.000000, -961.000000)" fill="#FFFFFF">
            <g id="Form" transform="translate(55.000000, 918.000000)">
                <g id="Email">
                    <g id="ic_mail" transform="translate(32.000000, 43.000000)">
                        <path d="M45.8829365,32.2420635 L3.7202381,32.2420635 C3.04102772,32.2420635 2.48015873,31.6811945 2.48015873,31.0019841 L2.48015873,3.7202381 C2.48015873,3.04102772 3.04102772,2.48015873 3.7202381,2.48015873 L45.8829365,2.48015873 C46.5621469,2.48015873 47.1230159,3.04102772 47.1230159,3.7202381 L47.1230159,31.0019841 C47.1230159,31.6811945 46.5621469,32.2420635 45.8829365,32.2420635 L45.8829365,32.2420635 Z M45.8829365,34.7222222 C47.9319007,34.7222222 49.6031746,33.0509484 49.6031746,31.0019841 L49.6031746,3.7202381 C49.6031746,1.67127387 47.9319007,0 45.8829365,0 L3.7202381,0 C1.67127387,0 0,1.67127387 0,3.7202381 L0,31.0019841 C0,33.0509484 1.67127387,34.7222222 3.7202381,34.7222222 L45.8829365,34.7222222 L45.8829365,34.7222222 Z" id="Stroke-1"></path>
                        <path d="M18.2959365,15.4529478 L10.0265913,21.457412 C9.47240056,21.8598161 9.34935319,22.6352894 9.75175728,23.1894802 C10.1541614,23.7436709 10.9296347,23.8667182 11.4838254,23.4643141 L19.7531706,17.4598499 C20.3073613,17.0574458 20.4304087,16.2819725 20.0280046,15.7277818 C19.6256005,15.173591 18.8501272,15.0505437 18.2959365,15.4529478 L18.2959365,15.4529478 Z" id="Stroke-3"></path>
                        <path d="M39.5763633,21.4569499 L31.3080101,15.4534777 C30.7538108,15.0510855 29.9783401,15.1741496 29.575948,15.728349 C29.1735558,16.2825483 29.2966198,17.058019 29.8508192,17.4604112 L38.1191724,23.4638834 C38.6733718,23.8662756 39.4488424,23.7432115 39.8512346,23.1890121 C40.2536268,22.6348128 40.1305627,21.8593421 39.5763633,21.4569499 L39.5763633,21.4569499 Z" id="Stroke-5"></path>
                        <path d="M47.6344821,2.53965127 L24.0729742,19.6477862 L25.5302005,19.6477862 L1.96869252,2.53965127 C1.41450024,2.13724934 0.639027407,2.26029973 0.236625475,2.81449201 C-0.165776456,3.36868429 -0.0427260659,4.14415712 0.511466215,4.54655905 L24.0729742,21.654694 C24.507485,21.9701946 25.0956896,21.9701946 25.5302005,21.654694 L49.0917084,4.54655905 C49.6459007,4.14415712 49.7689511,3.36868429 49.3665491,2.81449201 C48.9641472,2.26029973 48.1886744,2.13724934 47.6344821,2.53965127 L47.6344821,2.53965127 Z" id="Stroke-7"></path>
                    </g>
                </g>
            </g>
        </g>
    </g>
</svg>