<?xml version="1.0" encoding="UTF-8" standalone="no"?>
<svg width="244px" height="245px" viewBox="0 0 244 245" version="1.1" xmlns="http://www.w3.org/2000/svg" xmlns:xlink="http://www.w3.org/1999/xlink">
    <!-- Generator: Sketch 3.6.1 (26313) - http://www.bohemiancoding.com/sketch -->
    <title>ic_add</title>
    <desc>Created with Sketch.</desc>
    <defs></defs>
    <g id="SCREENS" stroke="none" stroke-width="1" fill="none" fill-rule="evenodd">
        <g id="4.2-OTP-Response-Success" transform="translate(-253.000000, -520.000000)" fill="#43A047">
            <g id="Dialog" transform="translate(50.000000, 273.000000)">
                <g id="Group-2">
                    <path d="M374.09375,323.210938 L384.640625,333.757812 L306.125,412.859375 C304.562492,414.421883 302.804697,415.203125 300.851562,415.203125 C298.898428,415.203125 297.140633,414.421883 295.578125,412.859375 L262.765625,380.046875 L273.3125,369.5 L300.851562,397.039062 L374.09375,323.210938 Z M324.875,247.625 C358.468918,247.625 387.179568,259.538943 411.007812,283.367188 C434.836057,307.195432 446.75,335.906082 446.75,369.5 C446.75,403.093918 434.836057,431.804568 411.007812,455.632812 C387.179568,479.461057 358.468918,491.375 324.875,491.375 C291.281082,491.375 262.570432,479.461057 238.742188,455.632812 C214.913943,431.804568 203,403.093918 203,369.5 C203,335.906082 214.913943,307.195432 238.742188,283.367188 C262.570432,259.538943 291.281082,247.625 324.875,247.625 L324.875,247.625 Z M324.875,481.414062 C355.734529,481.414062 382.101453,470.476672 403.976562,448.601562 C425.851672,426.726453 436.789062,400.359529 436.789062,369.5 C436.789062,338.640471 425.851672,312.273547 403.976562,290.398438 C382.101453,268.523328 355.734529,257.585938 324.875,257.585938 C294.015471,257.585938 267.648547,268.523328 245.773438,290.398438 C223.898328,312.273547 212.960938,338.640471 212.960938,369.5 C212.960938,400.359529 223.898328,426.726453 245.773438,448.601562 C267.648547,470.476672 294.015471,481.414062 324.875,481.414062 L324.875,481.414062 Z" id="ic_add"></path>
                </g>
            </g>
        </g>
    </g>
</svg>