<?xml version="1.0" encoding="UTF-8" standalone="no"?>
<svg width="45px" height="39px" viewBox="0 0 45 39" version="1.1" xmlns="http://www.w3.org/2000/svg" xmlns:xlink="http://www.w3.org/1999/xlink">
    <!-- Generator: Sketch 3.6.1 (26313) - http://www.bohemiancoding.com/sketch -->
    <title>ic_settings</title>
    <desc>Created with Sketch.</desc>
    <defs></defs>
    <g id="SCREENS" stroke="none" stroke-width="1" fill="none" fill-rule="evenodd">
        <g id="3.1b-Card-Details" transform="translate(-540.000000, -671.000000)">
            <g id="Content" transform="translate(0.000000, 630.000000)">
                <g id="Tab">
                    <g id="Tab-2" transform="translate(375.000000, 41.000000)">
                        <g id="ic_settings" transform="translate(165.000000, 0.000000)">
                            <path d="M1.11386139,6.68316832 L43.5377228,6.68316832 C44.1528914,6.68316832 44.6515842,6.18447559 44.6515842,5.56930693 C44.6515842,4.95413827 44.1528914,4.45544554 43.5377228,4.45544554 L1.11386139,4.45544554 C0.498692729,4.45544554 0,4.95413827 0,5.56930693 C0,6.18447559 0.498692729,6.68316832 1.11386139,6.68316832 L1.11386139,6.68316832 Z" id="Stroke-1" fill="#2D377A"></path>
                            <path d="M1.11386139,20.4356584 L43.5377228,20.4356584 C44.1528914,20.4356584 44.6515842,19.9369657 44.6515842,19.321797 C44.6515842,18.7066284 44.1528914,18.2079356 43.5377228,18.2079356 L1.11386139,18.2079356 C0.498692729,18.2079356 0,18.7066284 0,19.321797 C0,19.9369657 0.498692729,20.4356584 1.11386139,20.4356584 L1.11386139,20.4356584 Z" id="Stroke-3" fill="#2D377A"></path>
                            <path d="M1.11386139,34.1881931 L43.5377228,34.1881931 C44.1528914,34.1881931 44.6515842,33.6895003 44.6515842,33.0743317 C44.6515842,32.459163 44.1528914,31.9604703 43.5377228,31.9604703 L1.11386139,31.9604703 C0.498692729,31.9604703 0,32.459163 0,33.0743317 C0,33.6895003 0.498692729,34.1881931 1.11386139,34.1881931 L1.11386139,34.1881931 Z" id="Stroke-5" fill="#2D377A"></path>
                            <path d="M32.0842871,10.0247525 C34.5450297,10.0247525 36.5397327,8.0300495 36.5397327,5.56930693 C36.5397327,3.10856436 34.5450297,1.11386139 32.0842871,1.11386139 C29.6235446,1.11386139 27.6288416,3.10856436 27.6288416,5.56930693 C27.6288416,8.0300495 29.6235446,10.0247525 32.0842871,10.0247525" id="Fill-7" fill="#FFFFFF"></path>
                            <path d="M32.0842871,11.1386139 C35.1601984,11.1386139 37.6535941,8.64521816 37.6535941,5.56930693 C37.6535941,2.4933957 35.1601984,0 32.0842871,0 C29.0083759,0 26.5149802,2.4933957 26.5149802,5.56930693 C26.5149802,8.64521816 29.0083759,11.1386139 32.0842871,11.1386139 L32.0842871,11.1386139 L32.0842871,11.1386139 Z M32.0842871,8.91089109 C30.2387132,8.91089109 28.742703,7.41488085 28.742703,5.56930693 C28.742703,3.72373301 30.2387132,2.22772277 32.0842871,2.22772277 C33.929861,2.22772277 35.4258713,3.72373301 35.4258713,5.56930693 C35.4258713,7.41488085 33.929861,8.91089109 32.0842871,8.91089109 L32.0842871,8.91089109 L32.0842871,8.91089109 Z" id="Stroke-9" fill="#2D377A"></path>
                            <path d="M14.6433119,23.7772426 C17.1036089,23.7772426 19.0987574,21.7825396 19.0987574,19.321797 C19.0987574,16.8610545 17.1036089,14.8663515 14.6433119,14.8663515 C12.1830149,14.8663515 10.1878663,16.8610545 10.1878663,19.321797 C10.1878663,21.7825396 12.1830149,23.7772426 14.6433119,23.7772426" id="Fill-11" fill="#FFFFFF"></path>
                            <path d="M14.6433119,24.891104 C17.7189142,24.891104 20.2126188,22.3975716 20.2126188,19.321797 C20.2126188,16.2460224 17.7189142,13.7524901 14.6433119,13.7524901 C11.5677095,13.7524901 9.07400495,16.2460224 9.07400495,19.321797 C9.07400495,22.3975716 11.5677095,24.891104 14.6433119,24.891104 L14.6433119,24.891104 L14.6433119,24.891104 Z M14.6433119,22.6633812 C12.7980124,22.6633812 11.3017277,21.1671999 11.3017277,19.321797 C11.3017277,17.4763942 12.7980124,15.9802129 14.6433119,15.9802129 C16.4886114,15.9802129 17.984896,17.4763942 17.984896,19.321797 C17.984896,21.1671999 16.4886114,22.6633812 14.6433119,22.6633812 L14.6433119,22.6633812 L14.6433119,22.6633812 Z" id="Stroke-13" fill="#2D377A"></path>
                            <path d="M32.0842871,37.5297772 C34.5450297,37.5297772 36.5397327,35.5350743 36.5397327,33.0743317 C36.5397327,30.6135891 34.5450297,28.6188861 32.0842871,28.6188861 C29.6235446,28.6188861 27.6288416,30.6135891 27.6288416,33.0743317 C27.6288416,35.5350743 29.6235446,37.5297772 32.0842871,37.5297772" id="Fill-15" fill="#FFFFFF"></path>
                            <path d="M32.0842871,38.6436386 C35.1601984,38.6436386 37.6535941,36.1502429 37.6535941,33.0743317 C37.6535941,29.9984205 35.1601984,27.5050248 32.0842871,27.5050248 C29.0083759,27.5050248 26.5149802,29.9984205 26.5149802,33.0743317 C26.5149802,36.1502429 29.0083759,38.6436386 32.0842871,38.6436386 L32.0842871,38.6436386 L32.0842871,38.6436386 Z M32.0842871,36.4159158 C30.2387132,36.4159158 28.742703,34.9199056 28.742703,33.0743317 C28.742703,31.2287578 30.2387132,29.7327475 32.0842871,29.7327475 C33.929861,29.7327475 35.4258713,31.2287578 35.4258713,33.0743317 C35.4258713,34.9199056 33.929861,36.4159158 32.0842871,36.4159158 L32.0842871,36.4159158 L32.0842871,36.4159158 Z" id="Stroke-17" fill="#2D377A"></path>
                        </g>
                    </g>
                </g>
            </g>
        </g>
    </g>
</svg>