<?xml version="1.0" encoding="UTF-8" standalone="no"?>
<svg width="64px" height="50px" viewBox="0 0 64 50" version="1.1" xmlns="http://www.w3.org/2000/svg" xmlns:xlink="http://www.w3.org/1999/xlink">
    <!-- Generator: Sketch 3.6.1 (26313) - http://www.bohemiancoding.com/sketch -->
    <title>Combined Shape</title>
    <desc>Created with Sketch.</desc>
    <defs></defs>
    <g id="SCREENS" stroke="none" stroke-width="1" fill="none" fill-rule="evenodd">
        <g id="3.1a-Card-Details" transform="translate(-156.000000, -665.000000)" fill="#2D377A">
            <g id="Content" transform="translate(0.000000, 630.000000)">
                <g id="Tab">
                    <g id="Tab-1" transform="translate(0.000000, 35.000000)">
                        <g id="ic_trans" transform="translate(156.000000, 0.000000)">
                            <path d="M28.3916601,27.5545108 L29.5298462,27.5545108 C29.5430012,27.5545108 29.5561081,27.5543044 29.5691637,27.5538947 C33.1865007,27.5087302 36.1983506,24.9854918 36.8019881,21.6541538 L39.6008862,21.6541538 C40.2806212,21.6541538 40.8316554,21.1031197 40.8316554,20.4233846 C40.8316554,19.7436495 40.2806212,19.1926154 39.6008862,19.1926154 L36.8019702,19.1926154 C36.5657985,17.8893458 35.9610508,16.7097589 35.0956674,15.7538462 L39.6008862,15.7538462 C40.2806212,15.7538462 40.8316554,15.202812 40.8316554,14.5230769 C40.8316554,13.8433418 40.2806212,13.2923077 39.6008862,13.2923077 L24.8316554,13.2923077 C24.1519203,13.2923077 23.6008862,13.8433418 23.6008862,14.5230769 C23.6008862,15.202812 24.1519203,15.7538462 24.8316554,15.7538462 L29.4704246,15.7538462 C31.7761417,15.7538954 33.7003174,17.2185032 34.2752759,19.1926154 L24.8316554,19.1926154 C24.1519203,19.1926154 23.6008862,19.7436495 23.6008862,20.4233846 C23.6008862,21.1031197 24.1519203,21.6541538 24.8316554,21.6541538 L34.2753046,21.6541538 C33.7003814,23.6283158 31.77618,25.0929723 29.4704246,25.0929723 L25.5692308,25.0929723 C25.4074897,25.0929723 25.2530356,25.1241712 25.1115581,25.1808793 C24.9846836,25.229551 24.8502716,25.3117876 24.7317492,25.4218449 C24.3521678,25.7743159 24.2450997,26.3104223 24.4203265,26.766028 C24.4834964,26.9239391 24.5665126,27.0532944 24.6695998,27.1636631 L34.2555188,37.4868847 C34.7180471,37.9849884 35.4967932,38.013828 35.994897,37.5512997 C36.4930007,37.0887714 36.5218403,36.3100253 36.059312,35.8119215 L28.3916601,27.5545108 Z M54.1537477,25.3362541 L54.1537477,24.6152862 C54.1537477,12.3801395 44.2351924,2.46144 31.9999015,2.46144 C23.8716596,2.46144 16.5186601,6.87573899 12.6334518,13.8489073 C12.3026131,14.4426964 11.5530541,14.6558598 10.959265,14.325021 C10.3654759,13.9941823 10.1523125,13.2446233 10.4831513,12.6508342 C14.7986792,4.90532859 22.969762,-9.84615385e-05 31.9999015,-9.84615385e-05 C45.5946706,-9.84615385e-05 56.6152862,11.0206774 56.6152862,24.6152862 L56.6152862,25.336451 L61.8989455,20.0527917 C62.3795908,19.5721464 63.1588708,19.5721464 63.639516,20.0527917 C64.1201613,20.5334369 64.1201613,21.3127169 63.639516,21.7933622 L56.2707374,29.1621408 C56.046871,29.3943851 55.7325654,29.5388554 55.3845169,29.5388554 C55.0340878,29.5388554 54.7178648,29.392402 54.4937155,29.157363 L47.1297147,21.7933622 C46.6490694,21.3127169 46.6490694,20.5334369 47.1297147,20.0527917 C47.61036,19.5721464 48.38964,19.5721464 48.8702853,20.0527917 L54.1537477,25.3362541 Z M9.84625231,23.8945152 L9.84625231,24.6154831 C9.84625231,36.8506297 19.7648076,46.7693292 32.0000985,46.7693292 C40.1283404,46.7693292 47.4813399,42.3550302 51.3665482,35.3818619 C51.6973869,34.7880728 52.4469459,34.5749094 53.040735,34.9057482 C53.6345241,35.2365869 53.8476875,35.9861459 53.5168487,36.579935 C49.2013208,44.3254406 41.030238,49.2308677 32.0000985,49.2308677 C18.4053294,49.2308677 7.38471385,38.2100919 7.38471385,24.6154831 L7.38471385,23.8943182 L2.1010545,29.1779776 C1.62040922,29.6586229 0.841129244,29.6586229 0.360483962,29.1779776 C-0.120161321,28.6973323 -0.120161321,27.9180523 0.360483962,27.437407 L7.72926259,20.0686284 C7.95312897,19.8363842 8.2674346,19.6919138 8.61548308,19.6919138 C8.96591216,19.6919138 9.28213522,19.8383672 9.50628451,20.0734063 L16.8702853,27.437407 C17.3509306,27.9180523 17.3509306,28.6973323 16.8702853,29.1779776 C16.38964,29.6586229 15.61036,29.6586229 15.1297147,29.1779776 L9.84625231,23.8945152 Z" id="Combined-Shape"></path>
                        </g>
                    </g>
                </g>
            </g>
        </g>
    </g>
</svg>