<?xml version="1.0" encoding="UTF-8" standalone="no"?>
<svg width="64px" height="50px" viewBox="0 0 64 50" version="1.1" xmlns="http://www.w3.org/2000/svg" xmlns:xlink="http://www.w3.org/1999/xlink">
    <!-- Generator: Sketch 3.6.1 (26313) - http://www.bohemiancoding.com/sketch -->
    <title>ic_trans</title>
    <desc>Created with Sketch.</desc>
    <defs></defs>
    <g id="SCREENS" stroke="none" stroke-width="1" fill="none" fill-rule="evenodd">
        <g id="3.1b-Card-Details" transform="translate(-156.000000, -665.000000)" fill="#9E9E9E">
            <g id="Content" transform="translate(0.000000, 630.000000)">
                <g id="Tab">
                    <g id="Tab-1" transform="translate(0.000000, 35.000000)">
                        <g id="ic_trans" transform="translate(156.000000, 0.000000)">
                            <path d="M51.3665482,35.3818619 C47.4813399,42.3550302 40.1283404,46.7693292 32.0000985,46.7693292 C19.7648076,46.7693292 9.84625231,36.8506297 9.84625231,24.6154831 L9.84625231,20.9226831 C9.84625231,20.242948 9.29521815,19.6919138 8.61548308,19.6919138 C7.935748,19.6919138 7.38471385,20.242948 7.38471385,20.9226831 L7.38471385,24.6154831 C7.38471385,38.2100919 18.4053294,49.2308677 32.0000985,49.2308677 C41.030238,49.2308677 49.2013208,44.3254406 53.5168487,36.579935 C53.8476875,35.9861459 53.6345241,35.2365869 53.040735,34.9057482 C52.4469459,34.5749094 51.6973869,34.7880728 51.3665482,35.3818619 L51.3665482,35.3818619 Z" id="Stroke-1"></path>
                            <path d="M2.1010545,29.1779776 L9.48566988,21.7933622 L7.74509935,21.7933622 L15.1297147,29.1779776 C15.61036,29.6586229 16.38964,29.6586229 16.8702853,29.1779776 C17.3509306,28.6973323 17.3509306,27.9180523 16.8702853,27.437407 L9.48566988,20.0527917 C9.0050246,19.5721464 8.22574463,19.5721464 7.74509935,20.0527917 L0.360483962,27.437407 C-0.120161321,27.9180523 -0.120161321,28.6973323 0.360483962,29.1779776 C0.841129244,29.6586229 1.62040922,29.6586229 2.1010545,29.1779776 L2.1010545,29.1779776 Z" id="Stroke-3"></path>
                            <path d="M12.6334518,13.8489073 C16.5186601,6.87573899 23.8716596,2.46144 31.9999015,2.46144 C44.2351924,2.46144 54.1537477,12.3801395 54.1537477,24.6152862 L54.1537477,28.3080862 C54.1537477,28.9878212 54.7047818,29.5388554 55.3845169,29.5388554 C56.064252,29.5388554 56.6152862,28.9878212 56.6152862,28.3080862 L56.6152862,24.6152862 C56.6152862,11.0206774 45.5946706,-9.84615385e-05 31.9999015,-9.84615385e-05 C22.969762,-9.84615385e-05 14.7986792,4.90532859 10.4831513,12.6508342 C10.1523125,13.2446233 10.3654759,13.9941823 10.959265,14.325021 C11.5530541,14.6558598 12.3026131,14.4426964 12.6334518,13.8489073 L12.6334518,13.8489073 Z" id="Stroke-5"></path>
                            <path d="M61.8989455,20.0527917 L54.5143301,27.437407 L56.2549007,27.437407 L48.8702853,20.0527917 C48.38964,19.5721464 47.61036,19.5721464 47.1297147,20.0527917 C46.6490694,20.5334369 46.6490694,21.3127169 47.1297147,21.7933622 L54.5143301,29.1779776 C54.9949754,29.6586229 55.7742554,29.6586229 56.2549007,29.1779776 L63.639516,21.7933622 C64.1201613,21.3127169 64.1201613,20.5334369 63.639516,20.0527917 C63.1588708,19.5721464 62.3795908,19.5721464 61.8989455,20.0527917 L61.8989455,20.0527917 Z" id="Stroke-7"></path>
                            <path d="M24.8316554,15.7538462 L39.6008862,15.7538462 C40.2806212,15.7538462 40.8316554,15.202812 40.8316554,14.5230769 C40.8316554,13.8433418 40.2806212,13.2923077 39.6008862,13.2923077 L24.8316554,13.2923077 C24.1519203,13.2923077 23.6008862,13.8433418 23.6008862,14.5230769 C23.6008862,15.202812 24.1519203,15.7538462 24.8316554,15.7538462 L24.8316554,15.7538462 Z" id="Stroke-9"></path>
                            <path d="M24.8316554,21.6541538 L39.6008862,21.6541538 C40.2806212,21.6541538 40.8316554,21.1031197 40.8316554,20.4233846 C40.8316554,19.7436495 40.2806212,19.1926154 39.6008862,19.1926154 L24.8316554,19.1926154 C24.1519203,19.1926154 23.6008862,19.7436495 23.6008862,20.4233846 C23.6008862,21.1031197 24.1519203,21.6541538 24.8316554,21.6541538 L24.8316554,21.6541538 Z" id="Stroke-11"></path>
                            <path d="M25.5692308,27.5545108 L29.5298462,27.5545108 C30.2095812,27.5545108 30.7606154,27.0034766 30.7606154,26.3237415 C30.7606154,25.6440065 30.2095812,25.0929723 29.5298462,25.0929723 L25.5692308,25.0929723 C24.8894957,25.0929723 24.3384615,25.6440065 24.3384615,26.3237415 C24.3384615,27.0034766 24.8894957,27.5545108 25.5692308,27.5545108 L25.5692308,27.5545108 Z" id="Stroke-13"></path>
                            <path d="M29.4704246,27.5545108 C33.566757,27.5545108 36.9121477,24.376353 36.9121477,20.4234338 C36.9121477,16.4705147 33.566757,13.2923569 29.4704246,13.2923569 L29.4704246,15.7538954 C32.234717,15.7538954 34.4506092,17.8590173 34.4506092,20.4234338 C34.4506092,22.9878504 32.234717,25.0929723 29.4704246,25.0929723 L29.4704246,27.5545108 L29.4704246,27.5545108 Z" id="Stroke-15"></path>
                            <path d="M24.6673342,27.1612231 L34.2555188,37.4868847 C34.7180471,37.9849884 35.4967932,38.013828 35.994897,37.5512997 C36.4930007,37.0887714 36.5218403,36.3100253 36.059312,35.8119215 L26.4711274,25.48626 C26.0085991,24.9881562 25.2298529,24.9593166 24.7317492,25.4218449 C24.2336454,25.8843732 24.2048058,26.6631194 24.6673342,27.1612231 L24.6673342,27.1612231 Z" id="Stroke-17"></path>
                        </g>
                    </g>
                </g>
            </g>
        </g>
    </g>
</svg>