<?xml version="1.0" encoding="UTF-8" standalone="no"?>
<svg width="45px" height="46px" viewBox="0 0 45 46" version="1.1" xmlns="http://www.w3.org/2000/svg" xmlns:xlink="http://www.w3.org/1999/xlink">
    <!-- Generator: Sketch 3.6.1 (26313) - http://www.bohemiancoding.com/sketch -->
    <title>ic_user</title>
    <desc>Created with Sketch.</desc>
    <defs></defs>
    <g id="SCREENS" stroke="none" stroke-width="1" fill="none" fill-rule="evenodd">
        <g id="0-Login" transform="translate(-87.000000, -660.000000)" fill="#FFFFFF">
            <g id="Form" transform="translate(55.000000, 623.000000)">
                <g id="Uname">
                    <g id="ic_user" transform="translate(32.000000, 37.000000)">
                        <path d="M26.1954548,24.7996951 C26.1905053,24.8541934 26.1840011,24.9456254 26.1777952,25.070678 C26.0925465,26.7884773 26.2809423,28.8239089 26.978822,30.8022269 C27.0455688,30.9914376 27.1165739,31.1779189 27.1919536,31.3615095 C27.8531751,32.9723419 29.6109814,33.9126828 32.9173498,34.9427972 C38.908835,36.9471528 42.825851,40.8772562 42.825851,44.6477302 L43.9075817,43.5628245 L1.08186058,43.5628245 L2.16359135,44.6477302 C2.16359135,40.8758772 6.0767828,36.9465422 12.087391,34.9358992 C15.3880956,33.9079801 17.1250012,32.9826929 17.7858884,31.3721579 C17.8633198,31.1835982 17.9361846,30.9917132 18.0045069,30.7969323 C18.6945824,28.8295863 18.8784211,26.8038045 18.7896147,25.0867593 C18.7828055,24.9551051 18.775677,24.8588158 18.7702667,24.8014986 C18.7139606,24.2049889 18.1861639,23.7672012 17.5913998,23.8236726 C16.9966356,23.880144 16.5601292,24.4094897 16.6164353,25.0059995 C16.6190176,25.0333573 16.6238781,25.0990111 16.629058,25.1991612 C16.704521,26.6582166 16.5445775,28.420689 15.96365,30.0768634 C15.9077328,30.2362784 15.8483159,30.3927493 15.7853404,30.5461061 C15.474461,31.303697 14.0943,32.0389386 11.4242775,32.8706467 C4.60299265,35.1522266 0.000129807692,39.7740782 0.000129807692,44.6477302 C0.000129807692,45.246907 0.48443717,45.7326358 1.08186058,45.7326358 L43.9075817,45.7326358 C44.5050051,45.7326358 44.9893125,45.246907 44.9893125,44.6477302 C44.9893125,39.7749839 40.3824974,35.1527766 33.5804951,32.8775542 C30.90101,32.0425043 29.5044514,31.2954133 29.1924765,30.5353966 C29.1311043,30.385922 29.073107,30.2336032 29.0183953,30.0785089 C28.4301898,28.4110905 28.2661266,26.6385486 28.3385819,25.1785411 C28.343279,25.0838924 28.3476779,25.0220562 28.3499971,24.9965199 C28.4041897,24.3998133 27.9658108,23.8720263 27.3708504,23.8176746 C26.77589,23.763323 26.2496475,24.2029885 26.1954548,24.7996951 L26.1954548,24.7996951 Z" id="Stroke-1"></path>
                        <path d="M30.9631154,11.4575585 C30.9631154,18.2995815 26.5741114,26.4275208 22.5178269,26.4275208 C18.4612555,26.4275208 14.0725385,18.2998579 14.0725385,11.4575585 C14.0725385,6.15928151 17.7946341,2.16989811 22.5178269,2.16989811 C27.6245932,2.16989811 30.9631154,6.19359199 30.9631154,11.4575585 L30.9631154,11.4575585 Z M33.1265769,11.4575585 C33.1265769,5.0743505 28.9163804,8.67924527e-05 22.5178269,8.67924527e-05 C16.56649,8.67924527e-05 11.9090769,4.99195371 11.9090769,11.4575585 C11.9090769,19.3390772 16.908283,28.5973321 22.5178269,28.5973321 C28.1270644,28.5973321 33.1265769,19.3388 33.1265769,11.4575585 L33.1265769,11.4575585 Z" id="Stroke-3"></path>
                    </g>
                </g>
            </g>
        </g>
    </g>
</svg>