<?xml version="1.0" encoding="UTF-8" standalone="no"?>
<svg width="100px" height="100px" viewBox="0 0 100 100" version="1.1" xmlns="http://www.w3.org/2000/svg" xmlns:xlink="http://www.w3.org/1999/xlink">
    <!-- Generator: Sketch 3.6.1 (26313) - http://www.bohemiancoding.com/sketch -->
    <title>ic_add</title>
    <desc>Created with Sketch.</desc>
    <defs></defs>
    <g id="SCREENS" stroke="none" stroke-width="1" fill="none" fill-rule="evenodd">
        <g id="2a-Landing" transform="translate(-325.000000, -1152.000000)" fill="#BDBDBD">
            <g id="ic_add" transform="translate(325.000000, 1152.000000)">
                <path d="M95,50 C95,53.9868495 94.4821467,57.9027898 93.4703333,61.6789857 C93.1129839,63.0126523 93.9044453,64.3834917 95.2381119,64.7408412 C96.5717785,65.0981907 97.9426179,64.3067293 98.2999674,62.9730627 C99.4246181,58.7757453 100,54.4247817 100,50 C100,48.6192881 98.8807119,47.5 97.5,47.5 C96.1192881,47.5 95,48.6192881 95,50 L95,50 Z M88.9515189,72.5500331 C86.9732355,75.9594912 84.5530235,79.0973918 81.759254,81.8805972 C80.7810957,82.8550568 80.7780973,84.4379664 81.7525569,85.4161247 C82.7270165,86.3942831 84.3099261,86.3972815 85.2880845,85.4228218 C88.3905541,82.3320836 91.0784922,78.8470655 93.2762356,75.0593808 C93.9691728,73.8651433 93.5627886,72.3352859 92.3685511,71.6423486 C91.1743136,70.9494114 89.6444562,71.3557956 88.9515189,72.5500331 L88.9515189,72.5500331 Z M72.4029971,89.0364634 C68.991655,90.9986511 65.3345193,92.5061253 61.5143249,93.5141168 C60.1793041,93.8663736 59.3826166,95.2341824 59.7348734,96.5692031 C60.0871302,97.9042239 61.454939,98.7009114 62.7899597,98.3486546 C67.037853,97.227811 71.1041283,95.5516892 74.8959886,93.3706292 C76.0928355,92.6822086 76.5049964,91.1538974 75.8165758,89.9570506 C75.1281552,88.7602037 73.599844,88.3480428 72.4029971,89.0364634 L72.4029971,89.0364634 Z M49.9157292,94.9999229 C45.9290894,94.9926248 42.0139561,94.4674286 38.239303,93.4483562 C36.9063161,93.0884794 35.533979,93.8773409 35.1741022,95.2103278 C34.8142254,96.5433147 35.6030869,97.9156518 36.9360738,98.2755286 C41.1317281,99.4082619 45.4818851,99.9918145 49.9065761,99.9999145 C51.2872856,100.002442 52.4086209,98.8852048 52.4111484,97.5044953 C52.413676,96.1237857 51.2964388,95.0024504 49.9157292,94.9999229 L49.9157292,94.9999229 Z M27.3765798,88.9088446 C23.9707198,86.9240423 20.8372199,84.4978107 18.0591706,81.698679 C17.0865574,80.7186847 15.5036563,80.7127012 14.523662,81.6853144 C13.5436677,82.6579276 13.5376841,84.2408287 14.5102973,85.220823 C17.595301,88.3292386 21.0754109,91.0238462 24.8590697,93.2288149 C26.0519966,93.9240061 27.5826187,93.5205116 28.2778099,92.3275848 C28.9730011,91.1346579 28.5695067,89.6040358 27.3765798,88.9088446 L27.3765798,88.9088446 Z M10.9212668,72.3293485 C8.9655691,68.9143764 7.46503783,65.2544028 6.46427232,61.4321044 C6.11455824,60.0964153 4.74826902,59.2971246 3.41257993,59.6468387 C2.07689084,59.9965528 1.27760017,61.362842 1.62731425,62.6985311 C2.74012372,66.9487674 4.40853604,71.0182227 6.58239828,74.8141463 C7.26855625,76.0122917 8.79608598,76.4273396 9.99423143,75.7411816 C11.1923769,75.0550237 11.6074248,73.5274939 10.9212668,72.3293485 L10.9212668,72.3293485 Z M5.00030014,49.8337725 C5.01469878,45.8471964 5.54707678,41.9327148 6.57328347,38.1594437 C6.9356304,36.8271262 6.14931387,35.4533292 4.81699634,35.0909823 C3.48467882,34.7286354 2.11088184,35.5149519 1.74853492,36.8472694 C0.607858118,41.0414369 0.0163140044,45.3909566 0.000332756454,49.8157138 C-0.00465403809,51.1964166 1.11058419,52.3197401 2.49128706,52.3247268 C3.87198993,52.3297136 4.99531335,51.2144754 5.00030014,49.8337725 L5.00030014,49.8337725 Z M11.1339642,27.3032803 C13.1247902,23.9018628 15.5563303,20.7734714 18.3599502,18.0010889 C19.3417149,17.0302628 19.3505824,15.4473752 18.3797563,14.4656104 C17.4089302,13.4838457 15.8260426,13.4749782 14.8442779,14.4458043 C11.7308866,17.5245069 9.03039891,20.9989232 6.81875492,24.7776183 C6.12131261,25.9692305 6.52191642,27.5006117 7.71352857,28.198054 C8.90514072,28.8954963 10.4365219,28.4948925 11.1339642,27.3032803 L11.1339642,27.3032803 Z M27.744387,10.8791322 C31.162888,8.92998342 34.8255859,7.43642808 38.6498694,6.44289277 C39.9862197,6.09571371 40.7881013,4.73094355 40.4409223,3.39459331 C40.0937432,2.05824306 38.7289731,1.25636138 37.3926228,1.60354044 C33.1401763,2.70831098 29.0676677,4.36897676 25.2677934,6.53557558 C24.0683533,7.21946804 23.6504195,8.74621067 24.3343119,9.94565071 C25.0182044,11.1450907 26.544947,11.5630246 27.744387,10.8791322 L27.744387,10.8791322 Z M50.252698,5.00069374 C54.2388587,5.02258525 58.1523159,5.56245248 61.9238215,6.59601536 C63.2554358,6.96093785 64.6307507,6.17727924 64.9956732,4.84566486 C65.3605957,3.51405048 64.5769371,2.13873561 63.2453227,1.77381312 C59.0530669,0.624945661 54.7045958,0.0250676154 50.280157,0.000769137456 C48.899466,-0.00681344938 47.7740478,1.1063109 47.7664652,2.48700195 C47.7588826,3.867693 48.872007,4.99311115 50.252698,5.00069374 L50.252698,5.00069374 Z M72.7699315,11.1769074 C76.1676881,13.1742116 79.2916235,15.6117169 82.0588065,18.4206346 C83.0277828,19.404225 84.6106509,19.416072 85.5942414,18.4470957 C86.5778318,17.4781193 86.5896788,15.8952512 85.6207025,14.9116608 C82.5477821,11.7923947 79.0783348,9.08529762 75.3037349,6.86647355 C74.1134415,6.16678305 72.5813068,6.56449531 71.8816163,7.75478875 C71.1819258,8.94508219 71.579638,10.4772169 72.7699315,11.1769074 L72.7699315,11.1769074 Z M89.1628671,27.8182092 C91.1056405,31.2405463 92.5923096,34.9063199 93.5786092,38.7329621 C93.9232187,40.0699772 95.2864449,40.8744809 96.6234601,40.5298713 C97.9604752,40.1852618 98.7649789,38.8220356 98.4203694,37.4850204 C97.3236441,33.229949 95.6706253,29.1539965 93.5110971,25.3498301 C92.8294731,24.1490995 91.3035231,23.7282806 90.1027926,24.4099047 C88.902062,25.0915287 88.481243,26.6174787 89.1628671,27.8182092 L89.1628671,27.8182092 Z" id="Stroke-1"></path>
                <path d="M47.5,25 L47.5,75 C47.5,76.3807119 48.6192881,77.5 50,77.5 C51.3807119,77.5 52.5,76.3807119 52.5,75 L52.5,25 C52.5,23.6192881 51.3807119,22.5 50,22.5 C48.6192881,22.5 47.5,23.6192881 47.5,25 L47.5,25 Z" id="Stroke-3"></path>
                <path d="M75,47.5 L25,47.5 C23.6192881,47.5 22.5,48.6192881 22.5,50 C22.5,51.3807119 23.6192881,52.5 25,52.5 L75,52.5 C76.3807119,52.5 77.5,51.3807119 77.5,50 C77.5,48.6192881 76.3807119,47.5 75,47.5 L75,47.5 Z" id="Stroke-5"></path>
            </g>
        </g>
    </g>
</svg>