<?xml version="1.0" encoding="UTF-8" standalone="no"?>
<svg width="40px" height="51px" viewBox="0 0 40 51" version="1.1" xmlns="http://www.w3.org/2000/svg" xmlns:xlink="http://www.w3.org/1999/xlink">
    <!-- Generator: Sketch 3.6.1 (26313) - http://www.bohemiancoding.com/sketch -->
    <title>ic_lock</title>
    <desc>Created with Sketch.</desc>
    <defs></defs>
    <g id="SCREENS" stroke="none" stroke-width="1" fill="none" fill-rule="evenodd">
        <g id="0-Login" transform="translate(-87.000000, -808.000000)" fill="#FFFFFF">
            <g id="Form" transform="translate(55.000000, 623.000000)">
                <g id="Pwd" transform="translate(0.000000, 150.000000)">
                    <g id="ic_lock" transform="translate(32.000000, 35.000000)">
                        <path d="M19.9877436,0 C12.8494298,0 7.01441026,5.83501955 7.01441026,12.9733333 L7.01441026,22.6897436 C7.01441026,23.397801 7.58840417,23.9717949 8.29646154,23.9717949 L31.6790256,23.9717949 C32.387083,23.9717949 32.9610769,23.397801 32.9610769,22.6897436 L32.9610769,12.9733333 C32.9610769,5.83501955 27.1260574,0 19.9877436,0 L19.9877436,0 Z M19.9877436,2.56410256 C25.7099426,2.56410256 30.3969744,7.25113429 30.3969744,12.9733333 L30.3969744,22.6897436 L31.6790256,21.4076923 L8.29646154,21.4076923 L9.57851282,22.6897436 L9.57851282,12.9733333 C9.57851282,7.25113429 14.2655446,2.56410256 19.9877436,2.56410256 L19.9877436,2.56410256 Z" id="Stroke-1"></path>
                        <path d="M36.1292821,48.4269231 L3.84620513,48.4269231 C3.14400609,48.4269231 2.56415385,47.8470708 2.56415385,47.1448718 L2.56415385,25.2535897 C2.56415385,24.5513907 3.14400609,23.9715385 3.84620513,23.9715385 L36.1292821,23.9715385 C36.8314811,23.9715385 37.4113333,24.5513907 37.4113333,25.2535897 L37.4113333,47.1448718 C37.4113333,47.8470708 36.8314811,48.4269231 36.1292821,48.4269231 L36.1292821,48.4269231 Z M36.1292821,50.9910256 C38.2475958,50.9910256 39.9754359,49.2631856 39.9754359,47.1448718 L39.9754359,25.2535897 C39.9754359,23.135276 38.2475958,21.4074359 36.1292821,21.4074359 L3.84620513,21.4074359 C1.72789135,21.4074359 5.12820513e-05,23.135276 5.12820513e-05,25.2535897 L5.12820513e-05,47.1448718 C5.12820513e-05,49.2631856 1.72789135,50.9910256 3.84620513,50.9910256 L36.1292821,50.9910256 L36.1292821,50.9910256 Z" id="Stroke-3"></path>
                        <path d="M21.8232821,34.103641 C21.8232821,35.1174252 21.0015883,35.9390256 19.9878974,35.9390256 C18.9737405,35.9390256 18.152,35.1174719 18.152,34.103641 C18.152,33.0898102 18.9737405,32.2682564 19.9878974,32.2682564 C21.0015883,32.2682564 21.8232821,33.0898568 21.8232821,34.103641 L21.8232821,34.103641 Z M24.3873846,34.103641 C24.3873846,31.6736769 22.4176378,29.7041538 19.9878974,29.7041538 C17.5577561,29.7041538 15.5878974,31.673565 15.5878974,34.103641 C15.5878974,36.5337171 17.5577561,38.5031282 19.9878974,38.5031282 C22.4176378,38.5031282 24.3873846,36.5336052 24.3873846,34.103641 L24.3873846,34.103641 Z" id="Stroke-5"></path>
                        <path d="M18.7056923,37.2557949 L18.7056923,41.4127179 C18.7056923,42.1207753 19.2796862,42.6947692 19.9877436,42.6947692 C20.695801,42.6947692 21.2697949,42.1207753 21.2697949,41.4127179 L21.2697949,37.2557949 C21.2697949,36.5477375 20.695801,35.9737436 19.9877436,35.9737436 C19.2796862,35.9737436 18.7056923,36.5477375 18.7056923,37.2557949 L18.7056923,37.2557949 Z" id="Stroke-7"></path>
                    </g>
                </g>
            </g>
        </g>
    </g>
</svg>